<?xml version="1.0" standalone="no"?><!DOCTYPE svg PUBLIC "-//W3C//DTD SVG 1.1//EN" "http://www.w3.org/Graphics/SVG/1.1/DTD/svg11.dtd"><svg t="1576484675402" class="icon" viewBox="0 0 2967 1024" version="1.1" xmlns="http://www.w3.org/2000/svg" p-id="12772" xmlns:xlink="http://www.w3.org/1999/xlink" width="556.3125" height="192"><defs><style type="text/css"></style></defs><path d="M1164.703772 537.831272c100.271653-21.542233 86.595894-141.505945 83.658904-167.718896-4.942422-40.432118-52.464717-111.0363-116.962032-105.395211-81.174755 7.245436-93.026218 124.505048-93.026217 124.505047C1027.376891 443.524165 1064.613254 559.438196 1164.703772 537.831272m186.207694-201.099653c55.349953 0 100.090517-63.78571 100.090518-142.579822s-44.740565-142.489254-100.090518-142.489254c-55.375829 0-100.232838 63.682204-100.232838 142.489254 0 78.794112 44.844071 142.579822 100.232838 142.579822m238.633597 9.380252c74.097517 9.703708 121.568059-69.336231 131.064754-129.227519 9.703708-59.813658-38.16792-129.382778-90.503253-141.324809-52.568223-12.084352-118.191168 72.066208-124.103961 126.96332-7.206621 67.149662 9.522572 134.10525 83.54246 143.589008m293.427203 100.620986c0-28.645347-23.715863-114.995413-112.045486-114.995413-88.49782 0-100.181085 81.485274-100.181085 139.06061 0 54.948866 4.58015 131.595224 114.477882 129.214581 109.781288-2.432396 97.748689-124.440356 97.748689-153.279778m-112.045486 251.468369s-114.529635-88.601327-181.394655-184.396336c-90.762019-141.247179-219.562575-83.710658-262.608226-11.993784-42.929206 71.910948-109.664843 117.324303-119.213292 129.382779-9.639017 11.812648-138.336067 81.355891-109.781287 208.345088 28.619471 126.885691 128.981692 124.479171 128.981691 124.479171s73.968134 7.245436 159.748917-11.954969c85.961918-19.135713 159.917114 4.696595 159.917114 4.696595s200.51743 67.24023 255.311037-62.142548c54.858298-129.279272-30.948361-196.403058-30.948361-196.403058" fill="#2319DC" p-id="12773"></path><path d="M1368.714537 574.679487v85.237374H1299.261861s-69.413861 5.757534-93.711946 84.435202c-8.474572 52.529408 7.478325 83.46483 10.260054 90.07629 2.807606 6.598522 25.229642 45.025207 81.575842 56.307385h130.327273V575.611043z m-1.048001 264.329016h-52.503531s-36.576511-1.901927-47.716369-44.016021c-5.744595-18.656997 0.853926-40.212168 3.7521-48.686739 2.652347-8.48751 14.930773-28.101939 40.238045-35.657894h56.216817z m91.991156-171.445119v165.920475s2.717038 41.286045 60.939288 56.333261h149.980517v-222.279613h-64.730204v166.864969h-61.767338s-19.743812-2.872298-23.457098-18.734626V666.580075z" fill="#FFFFFF" p-id="12774"></path><path d="M2385.171521 558.623084v-69.94433h-460.757951l-0.595161 70.979392h198.085034l-18.579367 42.45049h-168.456377v351.015478h400.167995c41.829452 0 38.116167-42.269354 38.116167-42.269354V602.134513h-168.715144l14.840205-43.459676h165.868722v-0.038815z m-89.48113 319.549586s-4.851854 11.657388-11.709141 11.657389h-265.532277v-81.873422h277.267295z m-0.45284-137.831473h-276.827392v-76.775741h276.827392z m616.43131-249.786393H2730.882305V455.155676h-84.784535v33.665399h-207.374717v463.591434h74.615048v-403.803652h398.33076z m-48.777308 95.950269v-26.833988h-72.86838v26.833988h-149.954641v-25.876556h-69.025712v25.876556h-46.642491l0.905679 52.529408h45.736812v98.615554h252.192912c34.998042 0 39.629945-36.925845 39.629945-36.925845v-61.715586h53.370396v-52.529408h-53.357458z m-72.86838 88.368438s-6.507954 11.954969-14.827267 11.954968H2639.279297v-48.841998h150.705061v36.912906h0.038815zM2534.582753 809.535106l116.095167 67.330798c-9.199116 10.104795-48.841999 22.939567-48.841999 22.939567h-77.396778v51.753111h105.084693c31.362385-6.417386 89.4035-35.916659 89.4035-35.916659 24.013444 22.059764 70.190157 31.245941 70.190157 31.245941h119.782576v-51.623729h-90.309179c-24.323962-3.622718-46.189652-17.518428-46.189652-17.518428l136.524708-78.380087v-42.437551h-374.304378v52.581161z m241.557648-0.866864l-66.399242 35.023918-60.861659-35.023918zM899.21031 564.36768h100.569234v-88.601327H899.21031z m0 386.142902h100.569234V602.962562H899.21031zM735.670478 603.260143l-214.555461-0.556346v73.062455h188.148436s44.766441 11.049289 44.766441 39.461747v25.747173H583.800973s-66.955588 6.171559-88.459006 86.143054c-3.700347 37.469253 1.229136 55.867484 3.752101 62.698894 2.419458 6.766719 22.033887 50.950938 80.424335 61.98729h271.095736V702.833129c0 0.012938-12.912401-85.431449-114.917784-99.572986M754.042833 883.024525H617.02647c-18.411169-7.426571-24.543913-19.666182-25.83774-22.771369-1.267951-3.027557-5.537583-14.038031-0.569285-25.164951 11.088104-21.451665 29.460459-26.394087 29.460459-26.394087H754.042833z m-280.825321-54.405459c2.962866-84.616337-72.971887-113.89566-72.971887-113.89566 64.277364-33.613646 56.113311-118.333489 56.113311-118.333489-6.960793-129.641544-165.377067-123.599368-165.377067-123.599368H46.189652V955.996412h276.400429c162.310696-0.646914 150.627431-127.377345 150.627431-127.377346m-156.177952 37.559821v0.219951H151.468419v-104.256643H316.211511l5.563459 1.12563s31.362385 5.731657 42.722193 33.924164c0 0 6.572645 26.497593-7.633583 46.189652 0 0-10.428252 18.17828-39.849896 22.797246m35.114486-224.039219s-11.126919 20.442479-40.652069 24.86737H151.468419v-99.99995h159.334891s34.622832-1.591408 46.086146 25.902433c0 0.012938 6.883164 29.240508-4.748348 49.230147" fill="#E10601" p-id="12775"></path></svg>