<?xml version="1.0" standalone="no"?><!DOCTYPE svg PUBLIC "-//W3C//DTD SVG 1.1//EN" "http://www.w3.org/Graphics/SVG/1.1/DTD/svg11.dtd"><svg t="1576484179542" class="icon" viewBox="0 0 2899 1024" version="1.1" xmlns="http://www.w3.org/2000/svg" p-id="4805" xmlns:xlink="http://www.w3.org/1999/xlink" width="543.5625" height="192"><defs><style type="text/css"></style></defs><path d="M481.74210507812484 75.21578984374997c104.542105078125-12.78947373046875 216.94736865234376 4.073683886718751 304.0105262695312 66.5052626953125-27.99473642578125 28.136842382812503-56.0368423828125 56.1789474609375-84.126315234375 84.17368388671876-0.09473642578125-17.05263134765625-0.04736865234375-34.10526357421875-0.04736865234375-51.15789404296875-30.221052539062498-26.6210525390625-64.1368423828125-50.778947460937495-103.8789474609375-60.3947373046875-61.247368652343745-15.205263574218751-129.26842119140625-12.6-185.49473642578127 18.04736865234375C362.42105253906243 159.24736865234377 324.5263161132812 205.95263134765628 306.0526313476562 259.242105078125c-28.75263134765625 81.142105078125-19.326316113281248 173.51052626953128 19.373684765624997 249.82105253906246 43.957894921875 88.01052626953125 134.24210507812498 154.37368388671877 234.09473642578124 158.06842119140626 47.842105078125 1.2789474609375 96.58421015625-1.7999999999999998 142.342105078125-16.957894921875-0.5210525390625-51.20526357421875-0.09473642578125-102.41052626953125-0.28421015624999996-153.5684203125-37.70526357421875-0.04736865234375-75.36315761718751 0-113.06842119140624-0.04736865234375 12.2210525390625-12.2210525390625 24.442105078125-24.48947373046875 36.71052626953125-36.66315849609375 66.93157880859376 0.09473642578125 133.8631576171875 0 200.74736865234374 0.0947373046875-13.83157880859375 18.094736425781253-40.83157880859375 30.17368388671875-38.9368423828125 56.368421191406256-0.61578984375 50.636842382812496-0.04736865234375 101.27368388671874-0.28421015624999996 151.91052626953126-90.9 25.48421015625-185.30526357421874 40.642105078125-279.94736865234376 37.61052626953125-82.1368423828125-3.7894737304687505-165.36315761718748-33.77368388671874-223.76842119140628-93.03157880859374C229.5052635742188 560.6 200.51578984375 486.8 195.8263161132813 412.81052626953124c-7.8631576171875-80.857894921875 20.084210156250002-163.61052626953128 72.9-225C321.8736838867187 124.66842119140625 400.5052635742186 85.96842119140626 481.74210507812484 75.21578984374997zM1846.994736425781 340.2894737304688c35.952631347656244-36 88.2-49.926316113281246 137.88947373046872-50.82631611328125 60.53684238281251-0.2368423828125 121.1210525390625-0.14210507812499998 181.65789492187503 0-11.794736425781249 12.50526357421875-24.110526269531253 24.48947373046875-36.23684150390625 36.61578984375-15.3 0-30.6 0.09473642578125-45.89999999999999-0.14210507812499998 27.28421015625 23.494736425781248 49.97368388671875 54.757894921875 55.278946582031246 91.08947373046875 7.199999999999999 42.0631576171875-7.057894921875 87.0631576171875-38.605262695312504 116.10000000000001-18.236842382812497 20.65263134765625-48.12631611328125 31.8789474609375-57.268421191406254 59.68421015625-6.394736425781249 16.62631611328125 4.642105078125001 32.873683886718744 17.147368652343747 42.868421191406256 35.147368652343744 28.75263134765625 76.31052626953125 54.047368652343756 97.38947373046875 95.92105253906252 21.8368423828125 46.184210156249996 12.457894921874999 103.83157880859375-19.610526269531253 143.00526357421876-37.75263134765625 47.842105078125-99.18947373046875 69.72631611328126-158.16315849609376 75.41052626953126-52.5789474609375 3.93157880859375-108.04736865234375 1.51578984375-155.7473677734375-23.21052626953125-32.30526357421875-16.15263134765625-59.494736425781255-46.089473730468754-65.557894921875-82.46842119140625-7.957894921875-45.2368423828125 15.394736425781252-92.13157880859376 52.81578896484375-117.47368476562501 51.11052626953125-35.52631611328125 114.77368388671876-46.042105078125 175.64210595703128-50.4-24.299999999999997-20.936842382812497-32.6368423828125-55.657894921875-19.942105957031252-85.2631576171875-50.589473730468754 4.5947364257812495-106.15263134765624-10.468421191406248-137.4631576171875-52.76842119140625-46.4210525390625-57.50526357421875-35.90526357421874-148.07368388671873 16.67368388671875-198.142105078125m78.48947373046876-15.25263134765625c-20.036842382812498 7.815789843750001-35.478947460937505 25.057894921875-42.3 45.28421015625-12.78947373046875 36.757894921875-6.0157898437499995 77.21052626953126 6.91578984375 112.92631611328125 11.88947373046875 30.789473730468753 31.831578808593754 61.247368652343745 63.142105078125 74.842105078125 39.0789474609375 17.384210156250003 90.142105078125-3.31578984375 105.6789474609375-43.247368652343745 12.03157880859375-29.984210156249997 6.157894921875-63.33157880859376-2.41578896484375-93.41052626953126-10.23157880859375-31.689473730468755-26.38421015625-63.2368423828125-53.384211035156255-83.74736865234375-21.69473642578125-16.7210525390625-51.8210525390625-22.92631611328125-77.63684238281249-12.6473677734375M1909.4736838867182 715.8736838867187c-28.08947373046875 9.852631347656251-56.41578984375 27.189473730468748-68.16315761718751 55.8947373046875-13.97368388671875 32.21052626953125-5.1631576171875 71.7631576171875 19.610526269531253 96.25263134765625 29.842105078125 29.984210156249997 73.657894921875 40.54736865234375 114.72631611328124 41.96842119140625 39.64736865234375 1.7052635742187499 82.98947373046875-6.3 112.07368388671875-35.336842382812506 26.05263134765625-25.057894921875 32.589473730468754-68.30526357421876 12.6-98.95263134765625-20.7-31.07368388671875-53.52631611328125-50.82631611328125-82.7052626953125-72.99473642578124-36.42631611328125-1.32631611328125-73.2789474609375 2.1789474609375-108.14210595703126 13.1684203125z" fill="#166AEB" p-id="4806"></path><path d="M2170.6157898437514 127.17894746093748c12.12631611328125-12.410526269531251 24.39473642578125-24.6789474609375 36.75789404296875-36.80526357421875 47.98421015625 0.18947373046875 95.96842119140625-0.14210507812499998 143.95263222656249 0.14210595703125-13.736842382812501 18.094736425781253-40.68947373046875 30.126316113281252-38.98421103515625 56.226315234375-0.56842119140625 161.242105078125-0.09473642578125 322.4368423828125-0.33157880859375 483.6789474609375-0.3789474609375 12.2210525390625 1.37368388671875 28.08947373046875 14.873683886718752 32.7789474609375 17.478947460937498 4.5 35.7631576171875 4.4052635742187505 53.573684765624996 7.199999999999999-7.815789843750001 9.331578808593749-16.48421015625 17.90526357421875-25.294737304687498 26.242105078125-55.84736865234375-0.09473642578125-111.64736865234376-0.04736865234375-167.44736777343752 0 11.3210525390625-12.78947373046875 24.963157617187502-23.44736865234375 35.33684150390625-36.994736425781255 3.64736865234375-9.142105078125 3.5999999999999996-19.231578808593753 3.93157880859375-28.942105078125-0.2368423828125-167.82631611328125-0.09473642578125-335.6526313476562-0.18947373046875-503.4789474609375-18.71052626953125-0.04736865234375-37.46842119140626 0.04736865234375-56.178946582031244-0.04736865234375z" fill="#029B57" p-id="4807"></path><path d="M1040.5000000000002 293.34736865234373c54.994736425781255-9.899999999999999 114.86842119140626-1.2789474609375 161.3368423828125 31.026315234374998 45.47368388671875 30.50526357421875 76.16842119140625 80.95263134765625 84.6 134.85789492187502 9.521052539062499 58.45263134765625-7.24736865234375 120.55263134765626-45.189473730468755 166.073684765625-63.66315761718751 78.72631611328124-184.68947373046876 97.24736865234374-272.98421103515625 51.4894728515625-52.152631347656246-26.95263134765625-89.33684238281249-79.10526357421875-101.27368388671874-136.23157880859372-11.74736865234375-54.189473730468755-0.42631611328125-113.25789492187499 31.689473730468755-158.58947373046877 32.1631576171875-47.74736865234375 85.54736865234375-79.01052626953125 141.8210525390625-88.626315234375m-0.2368423828125 27.47368388671875c-46.61052626953125 8.6210525390625-85.35789492187499 48.221052539062505-91.23157880859375 95.542105078125-7.7210525390625 61.247368652343745 5.21052626953125 124.76842119140626 33.20526357421875 179.52631611328124 18.42631611328125 34.957894921874995 48.93157880859375 66.93157880859376 89.1473677734375 74.6052626953125 40.926316113281246 7.7210525390625 85.97368388671875-9.142105078125 109.657894921875-43.7684203125 25.15263134765625-35.57368388671875 26.4789474609375-81.80526357421874 22.02631611328125-123.58421103515623-6.8210525390625-53.38421015625-23.0210525390625-108.42631611328126-59.96842119140626-149.0210525390625-25.53157880859375-28.08947373046875-65.557894921875-41.494736425781255-102.8368423828125-33.3zM2422.6157898437505 357.53157880859374c55.657894921875-67.92631611328125 159.8210525390625-87.86842119140626 237.17368388671878-47.08421015625 33.72631611328125 18.236842382812497 55.942105078125 52.2 66.26842119140625 88.43684150390625-87.25263134765626 35.43157880859375-174.55263134765624 70.76842119140625-261.9 106.01052626953125 13.97368388671875 57.64736865234375 51.394736425781254 111.97894746093749 107.05263134765624 135.80526357421874 53.99999999999999 23.44736865234375 117.04736865234375 12.2210525390625 167.21052626953124-15.631578808593751v2.2263152343750003c-30.457894921875003 39.742105078125-76.83157880859375 68.257894921875-127.23157880859377 72.3315796875-56.9368423828125 6.77368388671875-118.32631611328124-6.394736425781249-161.81052626953124-45.42631611328125-81.2368423828125-72.56842119140624-97.29473642578125-211.59473642578126-26.7631576171875-296.66842119140625m43.152631347656246 18.85263134765625c-15.01578984375 30.789473730468753-13.68947373046875 66.69473642578124-7.815789843750001 99.56842119140626 55.46842119140625-23.0210525390625 111.55263134765624-44.57368388671875 166.73684238281248-68.21052626953126 14.49473642578125-5.7789474609375 11.936842382812499-23.731578808593753 7.01052626953125-35.242105078125-15.3-36.18947373046875-57.88421015625-59.4-96.53684238281251-50.68421015625-29.842105078125 6.20526357421875-56.7 26.7631576171875-69.39473642578125 54.5684203125z" fill="#D84531" p-id="4808"></path><path d="M1504.9947364257807 293.34736865234373c54.80526357421875-9.757894921875 114.44210507812501-1.23157880859375 160.81578984375 30.83684150390625 45.994736425781255 30.742105078125007 76.97368388671875 81.9 85.07368388671874 136.42105341796875 9.3789474609375 59.1631576171875-8.4789474609375 121.92631611328125-47.51052626953125 167.3052626953125-76.78421015625 91.56315761718751-233.05263134765624 99.18947373046875-317.7 14.542105078125001-65.98421015625-65.51052626953125-78.67894746093751-177.157894921875-26.6210525390625-254.69999999999996 31.8789474609375-50.82631611328125 87.25263134765626-84.50526357421876 145.942105078125-94.4052626953125m-0.61578896484375 27.47368388671875c-43.7210525390625 8.336842382812499-81.2368423828125 43.48421015625-89.66842119140625 87.58421103515626-9.805263574218749 53.19473642578125-0.04736865234375 108.47368388671875 18.521052539062502 158.68421015625 14.873683886718752 37.98947373046875 38.51052626953125 75.78947373046874 76.21578984375 94.4052626953125 45.71052626953125 23.4 107.14736865234376 7.4842101562500005 135.94736777343752-35.005262695312496 25.057894921875-35.621052539062504 26.242105078125-81.80526357421874 21.8368423828125-123.58421015625001-6.8210525390625-53.28947373046875-23.0210525390625-108.142105078125-59.826315234374995-148.73684238281248-25.5789474609375-28.184210156250003-65.7-41.58947373046875-103.02631611328125-33.34736865234375z" fill="#FFB806" p-id="4809"></path></svg>